<svg version="1.1" viewBox="0.0 0.0 960.0 540.0" fill="none" stroke="none" stroke-linecap="square" stroke-miterlimit="10" xmlns:xlink="http://www.w3.org/1999/xlink" xmlns="http://www.w3.org/2000/svg"><clipPath id="g2e2a8e95019_0_0.0"><path d="m0 0l960.0 0l0 540.0l-960.0 0l0 -540.0z" clip-rule="nonzero"/></clipPath><g clip-path="url(#g2e2a8e95019_0_0.0)"><path fill="#ffffff" d="m0 0l960.0 0l0 540.0l-960.0 0z" fill-rule="evenodd"/><path fill="#0097a7" fill-opacity="0.5082" d="m143.82816 255.20955l0 0c0 -7.523941 6.09935 -13.623306 13.623291 -13.623306l66.81091 0c3.6131287 0 7.0782623 1.435318 9.633133 3.9901733c2.5548553 2.5548706 3.9901733 6.0200043 3.9901733 9.633133l0 54.49153c0 7.5239563 -6.099365 13.623291 -13.623306 13.623291l-66.81091 0l0 0c-7.523941 0 -13.623291 -6.0993347 -13.623291 -13.623291z" fill-rule="evenodd"/><path fill="#000000" d="m189.33441 297.23032q-1.703125 0 -3.609375 -0.296875q-1.890625 -0.296875 -3.40625 -0.859375l0 -5.0q3.578125 1.15625 6.890625 1.15625q4.953125 0 4.953125 -3.5q0 -0.9375 -0.359375 -1.59375q-0.359375 -0.65625 -1.234375 -1.1875q-0.859375 -0.53125 -2.390625 -1.046875l-2.0 -0.671875q-3.09375 -1.0625 -4.84375 -3.140625q-1.75 -2.078125 -1.75 -5.28125q0 -2.796875 1.234375 -4.796875q1.234375 -2.0 3.703125 -3.0625q2.46875 -1.078125 6.109375 -1.078125q1.6875 0 3.25 0.203125q1.578125 0.203125 2.78125 0.5625l0 5.0q-2.5 -0.765625 -5.46875 -0.765625q-5.640625 0 -5.640625 3.484375q0 0.90625 0.3125 1.53125q0.328125 0.609375 1.09375 1.109375q0.78125 0.484375 2.171875 0.953125l1.984375 0.671875q3.421875 1.15625 5.203125 3.203125q1.796875 2.046875 1.796875 5.390625q0 2.78125 -1.265625 4.8125q-1.265625 2.03125 -3.6875 3.125q-2.421875 1.078125 -5.828125 1.078125z" fill-rule="nonzero"/><path fill="#f9cb9c" d="m315.39853 171.63799l0 0c0 -7.523941 6.0993347 -13.623291 13.623291 -13.623291l66.81091 0c3.6131287 0 7.078247 1.4353027 9.633118 3.9901733c2.5548706 2.5548553 3.9901733 6.0200043 3.9901733 9.633118l0 54.491547c0 7.523941 -6.099365 13.623291 -13.623291 13.623291l-66.81091 0l0 0c-7.5239563 0 -13.623291 -6.09935 -13.623291 -13.623291z" fill-rule="evenodd"/><path fill="#000000" d="m355.24933 208.19l12.40625 0l0 5.09375l-18.25 0l0 -29.59375l18.0625 0l0 5.09375l-12.21875 0l0 6.8125l10.21875 0l0 5.109375l-10.21875 0l0 7.484375z" fill-rule="nonzero"/><path fill="#000000" d="m373.63556 208.48688l2.421875 0l0 19.796875l-3.96875 0l0 -15.09375l-3.25 2.140625l0 -3.6875l4.796875 -3.15625z" fill-rule="nonzero"/><path fill="#f6b26b" d="m315.39853 341.39972l0 0c0 -7.523926 6.0993347 -13.623291 13.623291 -13.623291l66.81091 0c3.6131287 0 7.078247 1.4353027 9.633118 3.9901733c2.5548706 2.5548706 3.9901733 6.019989 3.9901733 9.633118l0 54.491547c0 7.523926 -6.099365 13.623291 -13.623291 13.623291l-66.81091 0l0 0c-7.5239563 0 -13.623291 -6.099365 -13.623291 -13.623291z" fill-rule="evenodd"/><path fill="#000000" d="m353.54337 377.95175l12.40625 0l0 5.09375l-18.25 0l0 -29.59375l18.0625 0l0 5.09375l-12.21875 0l0 6.8125l10.21875 0l0 5.109375l-10.21875 0l0 7.484375z" fill-rule="nonzero"/><path fill="#000000" d="m378.77335 394.57675l0 3.46875l-11.296875 0l0 -2.21875l4.515625 -6.734375q1.09375 -1.625 1.578125 -2.8125q0.484375 -1.203125 0.484375 -2.234375q0 -1.375 -0.796875 -2.0q-0.78125 -0.640625 -2.4375 -0.640625q-1.953125 0 -3.59375 0.671875l0 -3.328125q0.78125 -0.3125 1.953125 -0.5q1.171875 -0.1875 2.21875 -0.1875q3.171875 0 4.875 1.359375q1.703125 1.34375 1.703125 4.265625q0 1.484375 -0.546875 3.03125q-0.53125 1.546875 -1.84375 3.421875l-3.03125 4.4375l6.21875 0z" fill-rule="nonzero"/><path fill="#ea9999" d="m512.6798 171.63799l0 0c0 -7.523941 6.099365 -13.623291 13.623291 -13.623291l66.81091 0c3.6131592 0 7.078308 1.4353027 9.633118 3.9901733c2.5548706 2.5548553 3.9901733 6.0200043 3.9901733 9.633118l0 54.491547c0 7.523941 -6.099365 13.623291 -13.623291 13.623291l-66.81091 0l0 0c-7.523926 0 -13.623291 -6.09935 -13.623291 -13.623291z" fill-rule="evenodd"/><path fill="#000000" d="m552.2569 213.28375l0 -29.59375l5.9375 0l0 29.59375l-5.9375 0z" fill-rule="nonzero"/><path fill="#000000" d="m565.34686 208.48688l2.421875 0l0 19.796875l-3.96875 0l0 -15.09375l-3.25 2.140625l0 -3.6875l4.796875 -3.15625z" fill-rule="nonzero"/><path fill="#e06666" d="m512.6798 341.39972l0 0c0 -7.523926 6.099365 -13.623291 13.623291 -13.623291l66.81091 0c3.6131592 0 7.078308 1.4353027 9.633118 3.9901733c2.5548706 2.5548706 3.9901733 6.019989 3.9901733 9.633118l0 54.491547c0 7.523926 -6.099365 13.623291 -13.623291 13.623291l-66.81091 0l0 0c-7.523926 0 -13.623291 -6.099365 -13.623291 -13.623291z" fill-rule="evenodd"/><path fill="#000000" d="m550.5509 383.0455l0 -29.59375l5.9375 0l0 29.59375l-5.9375 0z" fill-rule="nonzero"/><path fill="#000000" d="m570.4847 394.57675l0 3.46875l-11.296875 0l0 -2.21875l4.515625 -6.734375q1.09375 -1.625 1.578125 -2.8125q0.484375 -1.203125 0.484375 -2.234375q0 -1.375 -0.796875 -2.0q-0.78125 -0.640625 -2.4375 -0.640625q-1.953125 0 -3.59375 0.671875l0 -3.328125q0.78125 -0.3125 1.953125 -0.5q1.171875 -0.1875 2.21875 -0.1875q3.171875 0 4.875 1.359375q1.703125 1.34375 1.703125 4.265625q0 1.484375 -0.546875 3.03125q-0.53125 1.546875 -1.84375 3.421875l-3.03125 4.4375l6.21875 0z" fill-rule="nonzero"/><path fill="#d5a6bd" d="m709.9611 171.63799l0 0c0 -7.523941 6.099365 -13.623291 13.623291 -13.623291l66.81091 0c3.6131592 0 7.078247 1.4353027 9.633118 3.9901733c2.5548706 2.5548553 3.9901733 6.0200043 3.9901733 9.633118l0 54.491547c0 7.523941 -6.099365 13.623291 -13.623291 13.623291l-66.81091 0l0 0c-7.523926 0 -13.623291 -6.09935 -13.623291 -13.623291z" fill-rule="evenodd"/><path fill="#000000" d="m758.22504 213.28375l-6.875 -10.921875l-0.5 0q-0.984375 0 -2.578125 -0.078125l0 11.0l-5.84375 0l0 -29.09375q4.0625 -0.859375 8.109375 -0.859375q5.921875 0 8.875 2.359375q2.953125 2.359375 2.953125 7.109375q0.015625 3.125 -1.421875 5.28125q-1.421875 2.15625 -4.078125 3.25l7.703125 11.953125l-6.34375 0zm-9.953125 -15.734375q1.375 0.109375 2.546875 0.109375q3.03125 0 4.46875 -1.140625q1.453125 -1.140625 1.453125 -3.6875q0 -2.484375 -1.359375 -3.671875q-1.34375 -1.1875 -4.078125 -1.1875q-1.5 0 -3.03125 0.234375l0 9.34375z" fill-rule="nonzero"/><path fill="#000000" d="m769.73816 208.48688l2.421875 0l0 19.796875l-3.96875 0l0 -15.09375l-3.25 2.140625l0 -3.6875l4.796875 -3.15625z" fill-rule="nonzero"/><path fill="#c27ba0" d="m709.9611 341.39972l0 0c0 -7.523926 6.099365 -13.623291 13.623291 -13.623291l66.81091 0c3.6131592 0 7.078247 1.4353027 9.633118 3.9901733c2.5548706 2.5548706 3.9901733 6.019989 3.9901733 9.633118l0 54.491547c0 7.523926 -6.099365 13.623291 -13.623291 13.623291l-66.81091 0l0 0c-7.523926 0 -13.623291 -6.099365 -13.623291 -13.623291z" fill-rule="evenodd"/><path fill="#000000" d="m756.5191 383.0455l-6.875 -10.921875l-0.5 0q-0.984375 0 -2.578125 -0.078125l0 11.0l-5.84375 0l0 -29.09375q4.0625 -0.859375 8.109375 -0.859375q5.921875 0 8.875 2.359375q2.953125 2.359375 2.953125 7.109375q0.015625 3.125 -1.421875 5.28125q-1.421875 2.15625 -4.078125 3.25l7.703125 11.953125l-6.34375 0zm-9.953125 -15.734375q1.375 0.109375 2.546875 0.109375q3.03125 0 4.46875 -1.140625q1.453125 -1.140625 1.453125 -3.6875q0 -2.484375 -1.359375 -3.671875q-1.34375 -1.1875 -4.078125 -1.1875q-1.5 0 -3.03125 0.234375l0 9.34375z" fill-rule="nonzero"/><path fill="#000000" d="m774.876 394.57675l0 3.46875l-11.296875 0l0 -2.21875l4.515625 -6.734375q1.09375 -1.625 1.578125 -2.8125q0.484375 -1.203125 0.484375 -2.234375q0 -1.375 -0.796875 -2.0q-0.78125 -0.640625 -2.4375 -0.640625q-1.953125 0 -3.59375 0.671875l0 -3.328125q0.78125 -0.3125 1.953125 -0.5q1.171875 -0.1875 2.21875 -0.1875q3.171875 0 4.875 1.359375q1.703125 1.34375 1.703125 4.265625q0 1.484375 -0.546875 3.03125q-0.53125 1.546875 -1.84375 3.421875l-3.03125 4.4375l6.21875 0z" fill-rule="nonzero"/><path fill="#000000" fill-opacity="0.0" d="m237.88567 282.45532l77.531235 -83.59477" fill-rule="evenodd"/><path stroke="#595959" stroke-width="1.0" stroke-linejoin="round" stroke-linecap="butt" d="m237.88567 282.45532l73.45116 -79.19559" fill-rule="evenodd"/><path fill="#595959" stroke="#595959" stroke-width="1.0" stroke-linecap="butt" d="m312.54785 204.38293l1.874939 -4.450531l-4.2970276 2.2041168z" fill-rule="evenodd"/><path fill="#000000" fill-opacity="0.0" d="m237.88567 282.45532l77.531235 86.19403" fill-rule="evenodd"/><path stroke="#595959" stroke-width="1.0" stroke-linejoin="round" stroke-linecap="butt" d="m237.88567 282.45532l73.51869 81.733154" fill-rule="evenodd"/><path fill="#595959" stroke="#595959" stroke-width="1.0" stroke-linecap="butt" d="m310.17633 365.2931l4.262909 2.2693787l-1.8068542 -4.478607z" fill-rule="evenodd"/><path fill="#000000" fill-opacity="0.0" d="m409.45602 198.88376l103.227875 0" fill-rule="evenodd"/><path stroke="#595959" stroke-width="1.0" stroke-linejoin="round" stroke-linecap="butt" d="m409.45602 198.88376l97.227875 0" fill-rule="evenodd"/><path fill="#595959" stroke="#595959" stroke-width="1.0" stroke-linecap="butt" d="m506.6839 200.53549l4.538086 -1.6517334l-4.538086 -1.6517334z" fill-rule="evenodd"/><path fill="#000000" fill-opacity="0.0" d="m606.7373 198.88376l103.227905 0" fill-rule="evenodd"/><path stroke="#595959" stroke-width="1.0" stroke-linejoin="round" stroke-linecap="butt" d="m606.7373 198.88376l97.227905 0" fill-rule="evenodd"/><path fill="#595959" stroke="#595959" stroke-width="1.0" stroke-linecap="butt" d="m703.9652 200.53549l4.538086 -1.6517334l-4.538086 -1.6517334z" fill-rule="evenodd"/><path fill="#000000" fill-opacity="0.0" d="m409.45602 368.64548l103.227875 0" fill-rule="evenodd"/><path stroke="#595959" stroke-width="1.0" stroke-linejoin="round" stroke-linecap="butt" d="m409.45602 368.6455l97.227875 0" fill-rule="evenodd"/><path fill="#595959" stroke="#595959" stroke-width="1.0" stroke-linecap="butt" d="m506.6839 370.29724l4.538086 -1.6517334l-4.538086 -1.6517334z" fill-rule="evenodd"/><path fill="#000000" fill-opacity="0.0" d="m606.7373 368.64548l103.227905 0" fill-rule="evenodd"/><path stroke="#595959" stroke-width="1.0" stroke-linejoin="round" stroke-linecap="butt" d="m606.7373 368.6455l97.227905 0" fill-rule="evenodd"/><path fill="#595959" stroke="#595959" stroke-width="1.0" stroke-linecap="butt" d="m703.9652 370.29724l4.538086 -1.6517334l-4.538086 -1.6517334z" fill-rule="evenodd"/><path fill="#ea9999" d="m229.42162 107.433266l0 0c0 -5.297943 4.2948303 -9.592773 9.592773 -9.592773l46.723373 0c2.544159 0 4.9841003 1.0106583 6.7831116 2.8096542c1.7989807 1.798996 2.8096619 4.2389603 2.8096619 6.783119l0 38.369972c0 5.297943 -4.2948303 9.592773 -9.592773 9.592773l-46.723373 0c-5.297943 0 -9.592773 -4.2948303 -9.592773 -9.592773z" fill-rule="evenodd"/><path fill="#000000" d="m257.41052 137.18639l0 -19.71875l3.953125 0l0 19.71875l-3.953125 0z" fill-rule="nonzero"/><path fill="#000000" d="m266.12924 133.99889l1.609375 0l0 13.1875l-2.625 0l0 -10.0625l-2.171875 1.421875l0 -2.453125l3.1875 -2.09375z" fill-rule="nonzero"/><path fill="#e06666" d="m229.42162 419.10727l0 0c0 -5.297943 4.2948303 -9.592773 9.592773 -9.592773l46.723373 0c2.544159 0 4.9841003 1.0106812 6.7831116 2.8096619c1.7989807 1.7990112 2.8096619 4.2389526 2.8096619 6.7831116l0 38.369965c0 5.2979736 -4.2948303 9.592804 -9.592773 9.592804l-46.723373 0c-5.297943 0 -9.592773 -4.2948303 -9.592773 -9.592804z" fill-rule="evenodd"/><path fill="#000000" d="m256.27353 448.86038l0 -19.71875l3.953125 0l0 19.71875l-3.953125 0z" fill-rule="nonzero"/><path fill="#000000" d="m269.55478 456.54788l0 2.3125l-7.515625 0l0 -1.484375l3.0 -4.484375q0.71875 -1.078125 1.046875 -1.875q0.328125 -0.796875 0.328125 -1.484375q0 -0.90625 -0.53125 -1.328125q-0.515625 -0.4375 -1.625 -0.4375q-1.296875 0 -2.390625 0.453125l0 -2.21875q0.515625 -0.203125 1.296875 -0.328125q0.78125 -0.125 1.484375 -0.125q2.109375 0 3.234375 0.90625q1.140625 0.890625 1.140625 2.84375q0 0.984375 -0.359375 2.015625q-0.359375 1.03125 -1.234375 2.28125l-2.015625 2.953125l4.140625 0z" fill-rule="nonzero"/><path fill="#000000" fill-opacity="0.0" d="m261.88428 162.82256l0.9807739 90.55713" fill-rule="evenodd"/><path stroke="#595959" stroke-width="1.0" stroke-linejoin="round" stroke-linecap="butt" stroke-dasharray="1.0,3.0" d="m261.88428 162.82256l0.9807739 90.55713" fill-rule="evenodd"/><path fill="#000000" fill-opacity="0.0" d="m261.88428 316.08734l0.9807739 90.55713" fill-rule="evenodd"/><path stroke="#595959" stroke-width="1.0" stroke-linejoin="round" stroke-linecap="butt" stroke-dasharray="1.0,3.0" d="m261.88428 316.08734l0.9807739 90.55713" fill-rule="evenodd"/><path fill="#000000" fill-opacity="0.0" d="m206.01 169.9222l44.33159 0l0 51.707138l-44.33159 0z" fill-rule="evenodd"/><path fill="#000000" d="m219.16624 202.77219l0 7.046875l-2.328125 0l0 -18.390625q0 -2.203125 0.578125 -3.4375q0.59375 -1.25 2.03125 -2.0625q1.453125 -0.8125 3.234375 -0.8125q2.609375 0 3.953125 1.5q1.359375 1.5 1.359375 3.296875q0 1.734375 -1.09375 2.8125q-1.09375 1.0625 -2.5 1.3125q2.265625 0.21875 3.5 1.625q1.234375 1.40625 1.234375 3.453125q0 2.21875 -1.453125 3.96875q-1.453125 1.75 -4.203125 1.75q-2.8125 0 -4.3125 -2.0625zm2.0625 -9.5q2.390625 0 3.484375 -0.828125q1.09375 -0.828125 1.09375 -2.40625q0 -1.28125 -0.9375 -2.140625q-0.921875 -0.859375 -2.3125 -0.859375q-1.203125 0 -2.09375 0.640625q-0.890625 0.640625 -1.09375 1.421875q-0.203125 0.78125 -0.203125 2.734375l0 5.25q0 2.234375 0.3125 3.296875q0.3125 1.046875 1.328125 1.890625q1.03125 0.84375 2.375 0.84375q1.625 0 2.5625 -1.109375q0.953125 -1.109375 0.953125 -2.75q0 -1.359375 -0.703125 -2.421875q-0.6875 -1.078125 -1.71875 -1.46875q-1.015625 -0.390625 -2.703125 -0.390625l-0.34375 0l0 -1.703125z" fill-rule="nonzero"/><path fill="#000000" fill-opacity="0.0" d="m188.59874 340.0765l118.72432 0l0 51.707153l-118.72432 0z" fill-rule="evenodd"/><path fill="#000000" d="m201.75499 372.9265l0 7.046875l-2.328125 0l0 -18.390625q0 -2.203125 0.578125 -3.4375q0.59375 -1.25 2.03125 -2.0625q1.453125 -0.8125 3.234375 -0.8125q2.609375 0 3.953125 1.5q1.359375 1.5 1.359375 3.296875q0 1.734375 -1.09375 2.8125q-1.09375 1.0625 -2.5 1.3125q2.265625 0.21875 3.5 1.625q1.234375 1.40625 1.234375 3.453125q0 2.21875 -1.453125 3.96875q-1.453125 1.75 -4.203125 1.75q-2.8125 0 -4.3125 -2.0625zm2.0625 -9.5q2.390625 0 3.484375 -0.828125q1.09375 -0.828125 1.09375 -2.40625q0 -1.28125 -0.9375 -2.140625q-0.921875 -0.859375 -2.3125 -0.859375q-1.203125 0 -2.09375 0.640625q-0.890625 0.640625 -1.09375 1.421875q-0.203125 0.78125 -0.203125 2.734375l0 5.25q0 2.234375 0.3125 3.296875q0.3125 1.046875 1.328125 1.890625q1.03125 0.84375 2.375 0.84375q1.625 0 2.5625 -1.109375q0.953125 -1.109375 0.953125 -2.75q0 -1.359375 -0.703125 -2.421875q-0.6875 -1.078125 -1.71875 -1.46875q-1.015625 -0.390625 -2.703125 -0.390625l-0.34375 0l0 -1.703125z" fill-rule="nonzero"/><path fill="#000000" d="m225.44865 367.364l4.5 7.3125l-2.25 0l-3.46875 -5.71875l-3.46875 5.71875l-2.171875 0l4.453125 -7.296875l-4.40625 -7.171875l2.25 0l3.390625 5.546875l3.375 -5.546875l2.1875 0l-4.390625 7.15625z" fill-rule="nonzero"/><path fill="#000000" d="m237.1561 360.8484l2.328125 0l0 6.828125q0 1.90625 0.3125 2.921875q0.3125 1.0 1.3125 1.671875q1.015625 0.65625 2.78125 0.75l0 -12.171875l2.34375 0l0 12.171875q1.703125 -0.09375 2.703125 -0.71875q1.0 -0.640625 1.34375 -1.640625q0.359375 -1.0 0.359375 -2.984375l0 -6.828125l2.328125 0l0 6.75q0 2.703125 -0.5 4.015625q-0.5 1.3125 -2.03125 2.296875q-1.515625 0.984375 -4.203125 1.078125l0 4.984375l-2.34375 0l0 -4.984375q-1.734375 -0.046875 -3.03125 -0.484375q-1.296875 -0.453125 -2.203125 -1.421875q-0.90625 -0.96875 -1.203125 -2.03125q-0.296875 -1.078125 -0.296875 -3.453125l0 -6.75z" fill-rule="nonzero"/><path fill="#000000" fill-opacity="0.0" d="m434.7623 146.38747l77.53122 0l0 59.783493l-77.53122 0z" fill-rule="evenodd"/><path fill="#000000" d="m457.24667 172.05934l-2.09375 1.6875q-2.0 -1.515625 -3.734375 -1.515625q-1.4375 0 -2.109375 0.765625q-0.65625 0.765625 -0.65625 1.65625q0 1.125 0.96875 1.890625q0.984375 0.75 2.875 0.75q0.25 0 0.8125 -0.015625l0 2.453125q-0.515625 -0.015625 -0.78125 -0.015625q-2.328125 0 -3.234375 0.90625q-0.890625 0.890625 -0.890625 2.015625q0 1.15625 0.90625 1.953125q0.90625 0.78125 2.171875 0.78125q2.296875 0 4.296875 -2.140625l2.09375 1.78125q-2.609375 2.765625 -6.484375 2.765625q-3.03125 0 -4.53125 -1.546875q-1.5 -1.546875 -1.5 -3.59375q0 -2.953125 2.859375 -4.1875q-2.390625 -1.34375 -2.390625 -3.71875q0 -1.9375 1.40625 -3.46875q1.421875 -1.546875 4.359375 -1.546875q3.359375 0 5.65625 2.34375z" fill-rule="nonzero"/><path fill="#000000" fill-opacity="0.0" d="m631.63983 146.38747l103.227844 0l0 59.783493l-103.227844 0z" fill-rule="evenodd"/><path fill="#000000" d="m654.6086 169.30934l0 18.078125l-2.140625 0l-0.203125 -1.96875l-0.15625 0q-0.859375 1.140625 -1.9375 1.71875q-1.078125 0.5625 -2.28125 0.5625q-1.796875 0 -2.75 -1.0625l0 8.078125l-2.53125 0l0 -25.40625l2.53125 0l0 12.5q0 1.921875 0.765625 2.75q0.78125 0.828125 2.1875 0.828125q1.0625 0 2.1875 -0.578125q1.125 -0.59375 1.796875 -1.78125l0 -13.71875l2.53125 0z" fill-rule="nonzero"/><path fill="#000000" fill-opacity="0.0" d="m631.63904 316.98856l77.53125 0l0 59.783478l-77.53125 0z" fill-rule="evenodd"/><path fill="#000000" d="m654.6078 339.91043l0 18.078125l-2.140625 0l-0.203125 -1.96875l-0.15625 0q-0.859375 1.140625 -1.9375 1.71875q-1.078125 0.5625 -2.28125 0.5625q-1.796875 0 -2.75 -1.0625l0 8.078125l-2.53125 0l0 -25.40625l2.53125 0l0 12.5q0 1.921875 0.765625 2.75q0.78125 0.828125 2.1875 0.828125q1.0625 0 2.1875 -0.578125q1.125 -0.59375 1.796875 -1.78125l0 -13.71875l2.53125 0z" fill-rule="nonzero"/><path fill="#000000" fill-opacity="0.0" d="m439.38632 316.98856l94.057526 0l0 59.783478l-94.057526 0z" fill-rule="evenodd"/><path fill="#000000" d="m461.8707 342.66043l-2.09375 1.6875q-2.0 -1.515625 -3.734375 -1.515625q-1.4375 0 -2.109375 0.765625q-0.65625 0.765625 -0.65625 1.65625q0 1.125 0.96875 1.890625q0.984375 0.75 2.875 0.75q0.25 0 0.8125 -0.015625l0 2.453125q-0.515625 -0.015625 -0.78125 -0.015625q-2.328125 0 -3.234375 0.90625q-0.890625 0.890625 -0.890625 2.015625q0 1.15625 0.90625 1.953125q0.90625 0.78125 2.171875 0.78125q2.296875 0 4.296875 -2.140625l2.09375 1.78125q-2.609375 2.765625 -6.484375 2.765625q-3.03125 0 -4.53125 -1.546875q-1.5 -1.546875 -1.5 -3.59375q0 -2.953125 2.859375 -4.1875q-2.390625 -1.34375 -2.390625 -3.71875q0 -1.9375 1.40625 -3.46875q1.421875 -1.546875 4.359375 -1.546875q3.359375 0 5.65625 2.34375z" fill-rule="nonzero"/></g></svg>